<svg width="377" height="39" viewBox="0 0 377 39" fill="none" xmlns="http://www.w3.org/2000/svg">
<path d="M7.40909 31L0.545455 7.72727H7.59091L10.7727 22.0455H10.9545L14.7273 7.72727H20.2727L24.0455 22.0909H24.2273L27.4091 7.72727H34.4545L27.5909 31H21.5455L17.5909 18H17.4091L13.4545 31H7.40909ZM42.8182 7.72727V31H36.5V7.72727H42.8182ZM58.358 15C58.2973 14.2424 58.0133 13.6515 57.5057 13.2273C57.0057 12.803 56.2443 12.5909 55.2216 12.5909C54.5701 12.5909 54.036 12.6705 53.6193 12.8295C53.2102 12.9811 52.9072 13.1894 52.7102 13.4545C52.5133 13.7197 52.411 14.0227 52.4034 14.3636C52.3883 14.6439 52.4375 14.8977 52.5511 15.125C52.6723 15.3447 52.8617 15.5455 53.1193 15.7273C53.3769 15.9015 53.7064 16.0606 54.108 16.2045C54.5095 16.3485 54.9867 16.4773 55.5398 16.5909L57.4489 17C58.7367 17.2727 59.839 17.6326 60.7557 18.0795C61.6723 18.5265 62.4223 19.053 63.0057 19.6591C63.589 20.2576 64.017 20.9318 64.2898 21.6818C64.5701 22.4318 64.714 23.25 64.7216 24.1364C64.714 25.6667 64.3314 26.9621 63.5739 28.0227C62.8163 29.0833 61.733 29.8902 60.3239 30.4432C58.9223 30.9962 57.2367 31.2727 55.267 31.2727C53.2443 31.2727 51.4792 30.9735 49.9716 30.375C48.4716 29.7765 47.3049 28.8561 46.4716 27.6136C45.6458 26.3636 45.2292 24.7652 45.2216 22.8182H51.2216C51.2595 23.5303 51.4375 24.1288 51.7557 24.6136C52.0739 25.0985 52.5208 25.4659 53.0966 25.7159C53.6799 25.9659 54.3731 26.0909 55.1761 26.0909C55.8504 26.0909 56.4148 26.0076 56.8693 25.8409C57.3239 25.6742 57.6686 25.4432 57.9034 25.1477C58.1383 24.8523 58.2595 24.5152 58.267 24.1364C58.2595 23.7803 58.142 23.4697 57.9148 23.2045C57.6951 22.9318 57.3314 22.6894 56.8239 22.4773C56.3163 22.2576 55.6307 22.053 54.767 21.8636L52.4489 21.3636C50.3883 20.9167 48.7633 20.1705 47.5739 19.125C46.392 18.072 45.8049 16.6364 45.8125 14.8182C45.8049 13.3409 46.1989 12.0492 46.9943 10.9432C47.7973 9.82954 48.9072 8.96212 50.3239 8.34091C51.7481 7.7197 53.3807 7.40909 55.2216 7.40909C57.1004 7.40909 58.7254 7.72348 60.0966 8.35227C61.4678 8.98106 62.5246 9.86742 63.267 11.0114C64.017 12.1477 64.3958 13.4773 64.4034 15H58.358ZM72.2642 31H65.446L73.1278 7.72727H81.7642L89.446 31H82.6278L77.5369 14.1364H77.3551L72.2642 31ZM70.9915 21.8182H83.8097V26.5455H70.9915V21.8182ZM88.1136 12.8182V7.72727H108.341V12.8182H101.341V31H95.1136V12.8182H88.1136ZM113.827 31H107.009L114.69 7.72727H123.327L131.009 31H124.19L119.099 14.1364H118.918L113.827 31ZM112.554 21.8182H125.372V26.5455H112.554V21.8182Z" fill="#FFC702"/>
<path d="M140.557 31V7.72727H144.068V18.8409H144.352L154.114 7.72727H158.534L149.148 18.2045L158.568 31H154.341L146.818 20.6023L144.068 23.7614V31H140.557ZM166.614 31.3864C165.508 31.3864 164.508 31.1818 163.614 30.7727C162.72 30.3561 162.011 29.7538 161.489 28.9659C160.973 28.178 160.716 27.2121 160.716 26.0682C160.716 25.0833 160.905 24.2727 161.284 23.6364C161.663 23 162.174 22.4962 162.818 22.125C163.462 21.7538 164.182 21.4735 164.977 21.2841C165.773 21.0947 166.583 20.9508 167.409 20.8523C168.455 20.7311 169.303 20.6326 169.955 20.5568C170.606 20.4735 171.08 20.3409 171.375 20.1591C171.67 19.9773 171.818 19.6818 171.818 19.2727V19.1932C171.818 18.2008 171.538 17.4318 170.977 16.8864C170.424 16.3409 169.598 16.0682 168.5 16.0682C167.356 16.0682 166.455 16.322 165.795 16.8295C165.144 17.3295 164.693 17.8864 164.443 18.5L161.25 17.7727C161.629 16.7121 162.182 15.8561 162.909 15.2045C163.644 14.5455 164.489 14.0682 165.443 13.7727C166.398 13.4697 167.402 13.3182 168.455 13.3182C169.152 13.3182 169.89 13.4015 170.67 13.5682C171.458 13.7273 172.193 14.0227 172.875 14.4545C173.564 14.8864 174.129 15.5038 174.568 16.3068C175.008 17.1023 175.227 18.1364 175.227 19.4091V31H171.909V28.6136H171.773C171.553 29.053 171.223 29.4848 170.784 29.9091C170.345 30.3333 169.78 30.6856 169.091 30.9659C168.402 31.2462 167.576 31.3864 166.614 31.3864ZM167.352 28.6591C168.292 28.6591 169.095 28.4735 169.761 28.1023C170.436 27.7311 170.947 27.2462 171.295 26.6477C171.652 26.0417 171.83 25.3939 171.83 24.7045V22.4545C171.708 22.5758 171.473 22.6894 171.125 22.7955C170.784 22.8939 170.394 22.9811 169.955 23.0568C169.515 23.125 169.087 23.1894 168.67 23.25C168.254 23.303 167.905 23.3485 167.625 23.3864C166.966 23.4697 166.364 23.6098 165.818 23.8068C165.28 24.0038 164.848 24.2879 164.523 24.6591C164.205 25.0227 164.045 25.5076 164.045 26.1136C164.045 26.9545 164.356 27.5909 164.977 28.0227C165.598 28.447 166.39 28.6591 167.352 28.6591ZM180.026 31V7.72727H183.423V16.375H183.628C183.825 16.0114 184.109 15.5909 184.48 15.1136C184.851 14.6364 185.366 14.2197 186.026 13.8636C186.685 13.5 187.556 13.3182 188.639 13.3182C190.048 13.3182 191.306 13.6742 192.412 14.3864C193.518 15.0985 194.385 16.125 195.014 17.4659C195.651 18.8068 195.969 20.4205 195.969 22.3068C195.969 24.1932 195.654 25.8106 195.026 27.1591C194.397 28.5 193.533 29.5341 192.435 30.2614C191.336 30.9811 190.082 31.3409 188.673 31.3409C187.613 31.3409 186.745 31.1629 186.071 30.8068C185.404 30.4508 184.882 30.0341 184.503 29.5568C184.124 29.0795 183.832 28.6553 183.628 28.2841H183.344V31H180.026ZM183.355 22.2727C183.355 23.5 183.533 24.5758 183.889 25.5C184.245 26.4242 184.76 27.1477 185.435 27.6705C186.109 28.1856 186.935 28.4432 187.912 28.4432C188.927 28.4432 189.776 28.1742 190.457 27.6364C191.139 27.0909 191.654 26.3523 192.003 25.4205C192.359 24.4886 192.537 23.4394 192.537 22.2727C192.537 21.1212 192.363 20.0871 192.014 19.1705C191.673 18.2538 191.158 17.5303 190.469 17C189.787 16.4697 188.935 16.2045 187.912 16.2045C186.927 16.2045 186.094 16.4583 185.412 16.9659C184.738 17.4735 184.226 18.1818 183.878 19.0909C183.529 20 183.355 21.0606 183.355 22.2727ZM200.057 31V7.72727H208.352C210.163 7.72727 211.663 8.05682 212.852 8.71591C214.042 9.375 214.932 10.2765 215.523 11.4205C216.114 12.5568 216.409 13.8371 216.409 15.2614C216.409 16.6932 216.11 17.9811 215.511 19.125C214.92 20.2614 214.027 21.1629 212.83 21.8295C211.64 22.4886 210.144 22.8182 208.341 22.8182H202.636V19.8409H208.023C209.167 19.8409 210.095 19.6439 210.807 19.25C211.519 18.8485 212.042 18.303 212.375 17.6136C212.708 16.9242 212.875 16.1402 212.875 15.2614C212.875 14.3826 212.708 13.6023 212.375 12.9205C212.042 12.2386 211.515 11.7045 210.795 11.3182C210.083 10.9318 209.144 10.7386 207.977 10.7386H203.568V31H200.057ZM227.557 31.3523C225.837 31.3523 224.356 30.9848 223.114 30.25C221.879 29.5076 220.924 28.4659 220.25 27.125C219.583 25.7765 219.25 24.197 219.25 22.3864C219.25 20.5985 219.583 19.0227 220.25 17.6591C220.924 16.2955 221.864 15.2311 223.068 14.4659C224.28 13.7008 225.697 13.3182 227.318 13.3182C228.303 13.3182 229.258 13.4811 230.182 13.8068C231.106 14.1326 231.936 14.6439 232.67 15.3409C233.405 16.0379 233.985 16.9432 234.409 18.0568C234.833 19.1629 235.045 20.5076 235.045 22.0909V23.2955H221.17V20.75H231.716C231.716 19.8561 231.534 19.0644 231.17 18.375C230.807 17.678 230.295 17.1288 229.636 16.7273C228.985 16.3258 228.22 16.125 227.341 16.125C226.386 16.125 225.553 16.3598 224.841 16.8295C224.136 17.2917 223.591 17.8977 223.205 18.6477C222.826 19.3902 222.636 20.197 222.636 21.0682V23.0568C222.636 24.2235 222.841 25.2159 223.25 26.0341C223.667 26.8523 224.246 27.4773 224.989 27.9091C225.731 28.3333 226.598 28.5455 227.591 28.5455C228.235 28.5455 228.822 28.4545 229.352 28.2727C229.883 28.0833 230.341 27.803 230.727 27.4318C231.114 27.0606 231.409 26.6023 231.614 26.0568L234.83 26.6364C234.572 27.5833 234.11 28.4129 233.443 29.125C232.784 29.8295 231.955 30.3788 230.955 30.7727C229.962 31.1591 228.83 31.3523 227.557 31.3523ZM241.94 25.0795L241.918 20.9318H242.509L249.463 13.5455H253.531L245.599 21.9545H245.065L241.94 25.0795ZM238.815 31V7.72727H242.213V31H238.815ZM249.838 31L243.588 22.7045L245.929 20.3295L254.009 31H249.838ZM261.707 31.3864C260.601 31.3864 259.601 31.1818 258.707 30.7727C257.813 30.3561 257.105 29.7538 256.582 28.9659C256.067 28.178 255.81 27.2121 255.81 26.0682C255.81 25.0833 255.999 24.2727 256.378 23.6364C256.757 23 257.268 22.4962 257.912 22.125C258.556 21.7538 259.276 21.4735 260.071 21.2841C260.866 21.0947 261.677 20.9508 262.503 20.8523C263.548 20.7311 264.397 20.6326 265.048 20.5568C265.7 20.4735 266.173 20.3409 266.469 20.1591C266.764 19.9773 266.912 19.6818 266.912 19.2727V19.1932C266.912 18.2008 266.632 17.4318 266.071 16.8864C265.518 16.3409 264.692 16.0682 263.594 16.0682C262.45 16.0682 261.548 16.322 260.889 16.8295C260.238 17.3295 259.787 17.8864 259.537 18.5L256.344 17.7727C256.723 16.7121 257.276 15.8561 258.003 15.2045C258.738 14.5455 259.582 14.0682 260.537 13.7727C261.491 13.4697 262.495 13.3182 263.548 13.3182C264.245 13.3182 264.984 13.4015 265.764 13.5682C266.552 13.7273 267.287 14.0227 267.969 14.4545C268.658 14.8864 269.223 15.5038 269.662 16.3068C270.101 17.1023 270.321 18.1364 270.321 19.4091V31H267.003V28.6136H266.866C266.647 29.053 266.317 29.4848 265.878 29.9091C265.438 30.3333 264.874 30.6856 264.185 30.9659C263.495 31.2462 262.67 31.3864 261.707 31.3864ZM262.446 28.6591C263.385 28.6591 264.188 28.4735 264.855 28.1023C265.529 27.7311 266.041 27.2462 266.389 26.6477C266.745 26.0417 266.923 25.3939 266.923 24.7045V22.4545C266.802 22.5758 266.567 22.6894 266.219 22.7955C265.878 22.8939 265.488 22.9811 265.048 23.0568C264.609 23.125 264.181 23.1894 263.764 23.25C263.348 23.303 262.999 23.3485 262.719 23.3864C262.06 23.4697 261.457 23.6098 260.912 23.8068C260.374 24.0038 259.942 24.2879 259.616 24.6591C259.298 25.0227 259.139 25.5076 259.139 26.1136C259.139 26.9545 259.45 27.5909 260.071 28.0227C260.692 28.447 261.484 28.6591 262.446 28.6591ZM278.244 7.72727V31H274.847V7.72727H278.244ZM290.168 31.3523C288.531 31.3523 287.103 30.9773 285.884 30.2273C284.664 29.4773 283.717 28.428 283.043 27.0795C282.368 25.7311 282.031 24.1553 282.031 22.3523C282.031 20.5417 282.368 18.9583 283.043 17.6023C283.717 16.2462 284.664 15.1932 285.884 14.4432C287.103 13.6932 288.531 13.3182 290.168 13.3182C291.804 13.3182 293.232 13.6932 294.452 14.4432C295.671 15.1932 296.618 16.2462 297.293 17.6023C297.967 18.9583 298.304 20.5417 298.304 22.3523C298.304 24.1553 297.967 25.7311 297.293 27.0795C296.618 28.428 295.671 29.4773 294.452 30.2273C293.232 30.9773 291.804 31.3523 290.168 31.3523ZM290.179 28.5C291.24 28.5 292.118 28.2197 292.815 27.6591C293.512 27.0985 294.027 26.3523 294.361 25.4205C294.702 24.4886 294.872 23.4621 294.872 22.3409C294.872 21.2273 294.702 20.2045 294.361 19.2727C294.027 18.3333 293.512 17.5795 292.815 17.0114C292.118 16.4432 291.24 16.1591 290.179 16.1591C289.111 16.1591 288.224 16.4432 287.52 17.0114C286.823 17.5795 286.304 18.3333 285.963 19.2727C285.63 20.2045 285.463 21.2273 285.463 22.3409C285.463 23.4621 285.63 24.4886 285.963 25.4205C286.304 26.3523 286.823 27.0985 287.52 27.6591C288.224 28.2197 289.111 28.5 290.179 28.5ZM305.494 20.6364V31H302.097V13.5455H305.358V16.3864H305.574C305.975 15.4621 306.604 14.7197 307.46 14.1591C308.324 13.5985 309.411 13.3182 310.722 13.3182C311.911 13.3182 312.953 13.5682 313.847 14.0682C314.741 14.5606 315.434 15.2955 315.926 16.2727C316.419 17.25 316.665 18.4583 316.665 19.8977V31H313.267V20.3068C313.267 19.0417 312.938 18.053 312.278 17.3409C311.619 16.6212 310.714 16.2614 309.562 16.2614C308.775 16.2614 308.074 16.4318 307.46 16.7727C306.854 17.1136 306.373 17.6136 306.017 18.2727C305.669 18.9242 305.494 19.7121 305.494 20.6364ZM328.54 37.9091C327.153 37.9091 325.96 37.7273 324.96 37.3636C323.968 37 323.157 36.5189 322.528 35.9205C321.9 35.322 321.43 34.6667 321.119 33.9545L324.04 32.75C324.244 33.0833 324.517 33.4356 324.858 33.8068C325.206 34.1856 325.676 34.5076 326.267 34.7727C326.866 35.0379 327.634 35.1705 328.574 35.1705C329.862 35.1705 330.926 34.8561 331.767 34.2273C332.608 33.6061 333.028 32.6136 333.028 31.25V27.8182H332.812C332.608 28.1894 332.313 28.6023 331.926 29.0568C331.547 29.5114 331.025 29.9053 330.358 30.2386C329.691 30.572 328.824 30.7386 327.756 30.7386C326.377 30.7386 325.134 30.4167 324.028 29.7727C322.93 29.1212 322.059 28.1629 321.415 26.8977C320.778 25.625 320.46 24.0606 320.46 22.2045C320.46 20.3485 320.775 18.7576 321.403 17.4318C322.04 16.1061 322.911 15.0909 324.017 14.3864C325.123 13.6742 326.377 13.3182 327.778 13.3182C328.862 13.3182 329.737 13.5 330.403 13.8636C331.07 14.2197 331.589 14.6364 331.96 15.1136C332.339 15.5909 332.631 16.0114 332.835 16.375H333.085V13.5455H336.415V31.3864C336.415 32.8864 336.066 34.1174 335.369 35.0795C334.672 36.0417 333.729 36.7538 332.54 37.2159C331.358 37.678 330.025 37.9091 328.54 37.9091ZM328.506 27.9205C329.483 27.9205 330.309 27.6932 330.983 27.2386C331.665 26.7765 332.18 26.1174 332.528 25.2614C332.884 24.3977 333.062 23.3636 333.062 22.1591C333.062 20.9848 332.888 19.9508 332.54 19.0568C332.191 18.1629 331.68 17.4659 331.006 16.9659C330.331 16.4583 329.498 16.2045 328.506 16.2045C327.483 16.2045 326.631 16.4697 325.949 17C325.267 17.5227 324.752 18.2348 324.403 19.1364C324.063 20.0379 323.892 21.0455 323.892 22.1591C323.892 23.303 324.066 24.3068 324.415 25.1705C324.763 26.0341 325.278 26.7083 325.96 27.1932C326.65 27.678 327.498 27.9205 328.506 27.9205ZM346.051 31.3864C344.945 31.3864 343.945 31.1818 343.051 30.7727C342.157 30.3561 341.449 29.7538 340.926 28.9659C340.411 28.178 340.153 27.2121 340.153 26.0682C340.153 25.0833 340.343 24.2727 340.722 23.6364C341.1 23 341.612 22.4962 342.256 22.125C342.9 21.7538 343.619 21.4735 344.415 21.2841C345.21 21.0947 346.021 20.9508 346.847 20.8523C347.892 20.7311 348.741 20.6326 349.392 20.5568C350.044 20.4735 350.517 20.3409 350.812 20.1591C351.108 19.9773 351.256 19.6818 351.256 19.2727V19.1932C351.256 18.2008 350.975 17.4318 350.415 16.8864C349.862 16.3409 349.036 16.0682 347.938 16.0682C346.794 16.0682 345.892 16.322 345.233 16.8295C344.581 17.3295 344.131 17.8864 343.881 18.5L340.688 17.7727C341.066 16.7121 341.619 15.8561 342.347 15.2045C343.081 14.5455 343.926 14.0682 344.881 13.7727C345.835 13.4697 346.839 13.3182 347.892 13.3182C348.589 13.3182 349.328 13.4015 350.108 13.5682C350.896 13.7273 351.631 14.0227 352.312 14.4545C353.002 14.8864 353.566 15.5038 354.006 16.3068C354.445 17.1023 354.665 18.1364 354.665 19.4091V31H351.347V28.6136H351.21C350.991 29.053 350.661 29.4848 350.222 29.9091C349.782 30.3333 349.218 30.6856 348.528 30.9659C347.839 31.2462 347.013 31.3864 346.051 31.3864ZM346.79 28.6591C347.729 28.6591 348.532 28.4735 349.199 28.1023C349.873 27.7311 350.384 27.2462 350.733 26.6477C351.089 26.0417 351.267 25.3939 351.267 24.7045V22.4545C351.146 22.5758 350.911 22.6894 350.562 22.7955C350.222 22.8939 349.831 22.9811 349.392 23.0568C348.953 23.125 348.525 23.1894 348.108 23.25C347.691 23.303 347.343 23.3485 347.062 23.3864C346.403 23.4697 345.801 23.6098 345.256 23.8068C344.718 24.0038 344.286 24.2879 343.96 24.6591C343.642 25.0227 343.483 25.5076 343.483 26.1136C343.483 26.9545 343.794 27.5909 344.415 28.0227C345.036 28.447 345.828 28.6591 346.79 28.6591ZM362.588 20.6364V31H359.19V13.5455H362.452V16.3864H362.668C363.069 15.4621 363.698 14.7197 364.554 14.1591C365.418 13.5985 366.505 13.3182 367.815 13.3182C369.005 13.3182 370.046 13.5682 370.94 14.0682C371.834 14.5606 372.527 15.2955 373.02 16.2727C373.512 17.25 373.759 18.4583 373.759 19.8977V31H370.361V20.3068C370.361 19.0417 370.031 18.053 369.372 17.3409C368.713 16.6212 367.808 16.2614 366.656 16.2614C365.868 16.2614 365.168 16.4318 364.554 16.7727C363.948 17.1136 363.467 17.6136 363.111 18.2727C362.762 18.9242 362.588 19.7121 362.588 20.6364Z" fill="white"/>
</svg>
